HIERARCHY
ROOT pelvis
{
  OFFSET 0 100 0
  CHANNELS 6 Xposition Yposition Zposition Zrotation Xrotation Yrotation
  JOINT pelvis_right_femur
  {
    OFFSET -10.78128 -3.44521 -0.5502486
    CHANNELS 3 Zrotation Xrotation Yrotation
    JOINT right_femur_tibia
    {
      OFFSET -0.8047443 -44.0398 -0.1307829
      CHANNELS 3 Zrotation Xrotation Yrotation
      JOINT right_tibia_foot
      {
        OFFSET 3.006224 -47.83518 -5
        CHANNELS 3 Zrotation Xrotation Yrotation
        End Site
        {
          OFFSET 0 -5 15
        }
      }
    }
  }
  JOINT pelvis_left_femur
  {
    OFFSET 10.78128 -3.44521 -0.5502486
    CHANNELS 3 Zrotation Xrotation Yrotation
    JOINT left_femur_tibia
    {
      OFFSET 0.8047443 -44.0398 -0.1307829
      CHANNELS 3 Zrotation Xrotation Yrotation
      JOINT left_tibia_foot
      {
        OFFSET -4.370144 -48.10324 -4.275266
        CHANNELS 3 Zrotation Xrotation Yrotation
        End Site
        {
          OFFSET 0 -5 15
        }
      }
    }
  }
  JOINT pelvis_spine1
  {
    OFFSET 0 6.468898 -3.129235
    CHANNELS 3 Zrotation Xrotation Yrotation
    JOINT spine1
    {
      OFFSET 0 23.15396 4.99043
      CHANNELS 3 Zrotation Xrotation Yrotation
      JOINT spine2
      {
        OFFSET 0 20.79997 -5.064912
        CHANNELS 3 Zrotation Xrotation Yrotation
        JOINT neck
        {
          OFFSET 0 14.38658 9.616178
          CHANNELS 3 Zrotation Xrotation Yrotation
          End Site
          {
            OFFSET 0 20 0
          }
        }
      }
      JOINT right_manubrium
      {
        OFFSET -5.722621 16.35077 3.967754
        CHANNELS 3 Zrotation Xrotation Yrotation
        JOINT right_clavicle
        {
          OFFSET -13.16364 1.694482 -4.693211
          CHANNELS 3 Zrotation Xrotation Yrotation
          JOINT right_humerus
          {
            OFFSET -28.5034 -0.3100689 -2.792744
            CHANNELS 3 Zrotation Xrotation Yrotation
            JOINT right_radius
            {
              OFFSET -25.15693 0.02248979 -1.271978
              CHANNELS 3 Zrotation Xrotation Yrotation
              End Site
              {
                OFFSET -15 0 0
              }
            }
          }
        }
      }
      JOINT left_manubrium
      {
        OFFSET 5.722621 16.35077 3.967754
        CHANNELS 3 Zrotation Xrotation Yrotation
        JOINT left_clavicle
        {
          OFFSET 13.16364 1.694482 -4.693211
          CHANNELS 3 Zrotation Xrotation Yrotation
          JOINT left_humerus
          {
            OFFSET 29.39168 -1.063119 -2.237045
            CHANNELS 3 Zrotation Xrotation Yrotation
            JOINT left_radius
            {
              OFFSET 24.59957 -0.9528479 0.9047498
              CHANNELS 3 Zrotation Xrotation Yrotation
              End Site
              {
                OFFSET 15 -0 -0
              }
            }
          }
        }
      }
    }
  }
}
MOTION
Frames: 19
Frame Time: 0.0416666666667
-741.2423 107.8429 2848.418 -3.858666 -6.580625 -38.15691 -0.7671614 -16.0535 -1.566549 -0 34.91002 -0 -8.337189 5.058497 -3.451624 -5.205761 9.709459 -11.0905 -0 11.37633 -0 -1.961167 -17.69529 15.78808 -0.002285655 -2.009323 6.131523 -0.05943811 17.47751 -7.891045 -0.8729884 20.42301 5.488591 6.841505 -17.11057 0.7921129 1.464814 -22.89598 13.01837 91.06485 20.08539 -21.57227 -0 0 18.11297 -23.00696 9.627888 6.334079 6.044342 -29.66387 -12.59136 -89.48603 5.942543 21.46336 0 0 -16.21444 15.04091 10.60094 -7.736861
-744.3247 106.9161 2852.637 -3.420076 -6.478202 -37.63331 -0.7146018 -19.81356 -2.585591 -0 24.34148 -0 -7.140161 2.47115 -3.825748 -5.348983 13.17362 -10.92418 -0 10.48517 -0 -2.359417 -19.73304 15.29195 0.02057403 -2.111398 5.944603 -0.130128 17.58857 -8.149296 -0.928822 20.35794 5.624873 6.976388 -17.27098 0.76523 1.315053 -22.51622 12.97025 91.58847 19.84505 -22.62468 -0 0 17.3734 -23.30541 9.400495 6.133338 6.54601 -30.28564 -12.78183 -88.60039 5.699125 19.67949 0 0 -18.85691 15.75797 10.44289 -8.79657
-747.5925 105.6699 2857.07 -2.772344 -6.049539 -37.25526 -0.3219805 -22.92757 -3.631498 -0 15.80452 -0 -6.202622 1.420578 -3.575808 -5.709116 15.15626 -10.16878 -0 11.11638 -0 -0.7983346 -20.40245 15.10752 0.03087993 -2.197834 5.84502 -0.1980978 17.61618 -8.311499 -0.9790632 20.2874 5.749514 7.08699 -17.37783 0.7570952 1.199589 -22.29055 12.91631 91.91335 19.77965 -23.2977 -0 0 16.94623 -23.49637 9.20215 5.98666 6.939126 -30.72912 -12.87052 -87.9779 5.487931 18.4537 0 0 -20.80753 16.28462 10.28137 -9.559515
-751.1019 104.3928 2861.764 -2.211797 -5.259278 -36.94214 0.470483 -25.43599 -4.058354 -0 10.56931 -0 -5.844879 1.815831 -3.273571 -5.896135 16.06519 -9.187821 -0 13.50874 -0 0.7735722 -20.0936 14.79698 0.03034531 -2.228634 5.83645 -0.2429109 17.61641 -8.397919 -1.028468 20.21596 5.830415 7.168646 -17.44948 0.7304589 1.124502 -22.23281 12.87174 92.09007 19.85698 -23.63017 -0 0 16.8344 -23.538 9.017311 5.846075 7.144824 -30.97341 -12.91355 -87.65312 5.31255 17.89384 0 0 -21.85355 16.54706 10.07045 -9.947815
-754.8877 103.2595 2866.696 -1.978417 -4.451256 -36.67586 1.562245 -26.7903 -3.605944 -0 8.273939 -0 -5.798968 2.509595 -3.347888 -5.728595 16.53093 -8.415834 -0 17.35463 -0 0.9626541 -19.21652 14.2339 0.02528975 -2.200406 5.90559 -0.2560401 17.62791 -8.434773 -1.079559 20.14388 5.856603 7.221556 -17.49811 0.6681224 1.086149 -22.32362 12.84598 92.16889 20.01068 -23.70645 -0 0 16.98519 -23.4416 8.845588 5.692483 7.153985 -31.05015 -12.95078 -87.5957 5.167551 17.94539 0 0 -22.04554 16.55089 9.806136 -9.980884
-758.9696 102.4185 2871.84 -2.118409 -3.92235 -36.49039 2.829332 -26.51821 -2.63669 -0 7.938321 -0 -5.97403 2.939098 -3.697991 -5.283404 16.68097 -7.834145 -0 22.71768 -0 0.08337792 -17.59725 13.54528 0.02549437 -2.142375 6.028746 -0.238655 17.66944 -8.449158 -1.132618 20.06599 5.834272 7.248605 -17.52609 0.5705774 1.074996 -22.52329 12.84378 92.18775 20.15341 -23.6318 -0 0 17.31608 -23.25757 8.703474 5.535611 7.014627 -31.0283 -13.0018 -87.73109 5.040548 18.43978 0 0 -21.63558 16.36169 9.519248 -9.748312
-763.3178 102.0447 2877.138 -2.595186 -3.747299 -36.46645 4.160302 -24.389 -1.395039 -0 9.162586 -0 -6.394553 2.792244 -4.193474 -4.644705 16.21036 -7.39269 -0 29.84259 -0 -1.298158 -15.04704 12.91509 0.03771157 -2.082851 6.187747 -0.1923349 17.74333 -8.453071 -1.184261 19.98065 5.769299 7.248256 -17.52653 0.4462367 1.087886 -22.80277 12.86865 92.1534 20.22304 -23.45866 -0 0 17.77259 -23.02661 8.617431 5.399476 6.767092 -30.94978 -13.06795 -88.01316 4.931264 19.2597 0 0 -20.80012 16.02864 9.251629 -9.311208
-767.821 102.2654 2882.47 -3.328041 -3.966018 -36.70453 5.319515 -20.51674 -0.0615361 -0 11.51636 -0 -6.966174 1.770885 -4.784989 -3.92877 14.63131 -7.049055 -0 38.44463 -0 -2.633755 -11.76983 12.58724 0.06241432 -2.036727 6.374526 -0.1171712 17.83377 -8.437091 -1.22685 19.89391 5.663721 7.213121 -17.48562 0.3105939 1.131138 -23.15157 12.92234 92.03692 20.20647 -23.16243 -0 0 18.34291 -22.76324 8.617874 5.316224 6.42489 -30.80748 -13.13091 -88.44489 4.858474 20.38658 0 0 -19.5552 15.56364 9.046944 -8.674619
-772.2895 103.0751 2887.666 -4.147092 -4.552162 -37.2663 6.060561 -15.5205 1.131418 -0 13.98836 -0 -7.570432 -0.03966041 -5.289324 -3.29647 11.4269 -6.761906 -0 47.4606 -0 -3.394507 -8.454808 12.76598 0.09660301 -2.016797 6.586317 -0.01654189 17.90991 -8.380668 -1.251508 19.81227 5.523064 7.135267 -17.38718 0.1862096 1.212463 -23.56803 13.00252 91.7906 20.1243 -22.68187 -0 0 19.03839 -22.47421 8.734546 5.323961 6.002017 -30.57701 -13.15714 -89.04154 4.844279 21.82758 0 0 -17.88809 14.974 8.946702 -7.834153
-776.5209 104.2796 2892.573 -4.836163 -5.371299 -38.10782 6.31038 -10.246 1.987242 -0 15.34102 -0 -8.093375 -2.060677 -5.370148 -2.836628 6.371627 -6.547309 -0 55.00491 -0 -3.446353 -6.053804 13.52693 0.136314 -2.040194 6.82299 0.09991241 17.93125 -8.260015 -1.250575 19.73752 5.359769 7.009721 -17.21624 0.1004605 1.335145 -24.05404 13.1018 91.36168 20.01553 -21.94787 -0 0 19.88272 -22.17172 8.992964 5.463868 5.528417 -30.23845 -13.10411 -89.80776 4.902551 23.57132 0 0 -15.83789 14.28042 8.98631 -6.804231
-780.4157 105.5331 2897.133 -5.270132 -6.227946 -39.08451 6.213896 -5.189136 2.478539 -0 15.01961 -0 -8.336485 -3.768954 -4.875468 -2.429503 -0.06436544 -6.348891 -0 58.89575 -0 -3.173346 -5.100689 14.80675 0.1773964 -2.125743 7.087598 0.2156976 17.85444 -8.053957 -1.22058 19.66446 5.193904 6.838052 -16.96405 0.08012701 1.494397 -24.61389 13.20688 90.70669 19.93278 -20.90264 -0 0 20.90665 -21.87461 9.402876 5.768949 5.050685 -29.78639 -12.92886 -90.72819 5.030968 25.57489 0 0 -13.51679 13.52011 9.182828 -5.626619
-784.033 106.4778 2901.422 -5.496059 -6.924502 -40.04991 5.988456 -0.3927595 2.74876 -0 13.57121 -0 -8.100093 -5.325935 -4.121951 -1.773052 -6.732479 -5.897726 -0 57.72187 -0 -2.939953 -5.214104 16.35615 0.215994 -2.286912 7.383708 0.3101113 17.64485 -7.75202 -1.164421 19.583 5.051099 6.631434 -16.63389 0.1438211 1.676105 -25.24687 13.29987 89.8113 19.93076 -19.52671 -0 0 22.12839 -21.60628 9.945665 6.248523 4.625039 -29.23767 -12.60214 -91.7605 5.208529 27.7523 0 0 -11.10643 12.74608 9.525229 -4.373679
-787.5051 106.8943 2905.597 -5.627518 -7.267522 -40.93765 5.771187 4.12329 2.895592 -0 11.98024 -0 -7.484585 -7.305781 -3.544509 -0.648668 -12.49361 -4.99659 -0 51.67389 -0 -2.679995 -5.511623 17.75111 0.2485729 -2.521925 7.70717 0.3643688 17.29168 -7.362424 -1.090429 19.48669 4.956249 6.410504 -16.24528 0.2952569 1.859802 -25.93206 13.36282 88.7104 20.04689 -17.86772 -0 0 23.51823 -21.39172 10.57011 6.876235 4.302975 -28.63153 -12.1244 -92.83422 5.403968 29.96543 0 0 -8.821436 12.02197 9.976749 -3.144232
-790.9182 106.7547 2909.809 -5.664564 -7.079739 -41.74342 5.594091 8.14504 2.827546 -0 10.84161 -0 -6.909444 -9.91666 -3.156985 0.807806 -16.89877 -3.883458 -0 42.38451 -0 -2.229249 -5.413045 18.58734 0.2715144 -2.805438 8.036978 0.3688527 16.82089 -6.915755 -1.008427 19.38324 4.923848 6.200555 -15.83445 0.5199115 2.024925 -26.61554 13.38412 87.49831 20.28379 -16.05504 -0 0 24.96929 -21.25291 11.20174 7.588763 4.113355 -28.01973 -11.53604 -93.86008 5.591657 32.0318 0 0 -6.846483 11.4097 10.48737 -2.047559
-794.2922 106.1677 2914.154 -5.49387 -6.32419 -42.47337 5.401382 11.47586 2.464618 -0 10.32087 -0 -6.654403 -12.7643 -2.665682 2.177834 -20.14128 -3.053229 -0 32.10304 -0 -1.720586 -4.919816 18.73557 0.2809401 -3.090143 8.33532 0.3270245 16.29455 -6.459258 -0.9255867 19.29679 4.950538 6.02353 -15.44797 0.7877316 2.157186 -27.21698 13.36331 86.31414 20.60807 -14.27874 -0 0 26.30969 -21.20194 11.76412 8.300199 4.050615 -27.45006 -10.91114 -94.75135 5.763572 33.76406 0 0 -5.277905 10.95207 11.00748 -1.175378
-797.6466 105.2887 2918.698 -5.084047 -5.264457 -43.14008 5.049363 14.16146 1.974851 -0 10.59098 -0 -6.57056 -15.10797 -1.9485 3.022307 -22.45396 -2.85186 -0 22.91903 -0 -1.466266 -4.379508 18.48712 0.2735378 -3.322466 8.5612 0.2528751 15.79034 -6.042298 -0.8453631 19.25702 5.017109 5.891952 -15.12969 1.062271 2.251535 -27.65843 13.31035 85.29989 20.96898 -12.73263 -0 0 27.3632 -21.23485 12.20064 8.927171 4.079797 -26.95428 -10.33291 -95.44726 5.927252 35.02642 0 0 -4.112537 10.6614 11.49527 -0.5762229
-801.0497 104.2797 2923.51 -4.587836 -4.383819 -43.76928 4.383898 16.39375 1.661391 -0 12.04023 -0 -6.402253 -16.09357 -1.163059 3.041455 -23.75476 -3.373504 -0 16.30141 -0 -1.607666 -4.148058 18.37123 0.2480423 -3.46175 8.68676 0.1644623 15.37525 -5.703777 -0.7698318 19.2837 5.09901 5.809235 -14.90965 1.310353 2.310258 -27.89207 13.24024 84.56063 21.32056 -11.56302 -0 0 28.00991 -21.33113 12.48203 9.406999 4.155709 -26.54963 -9.86859 -95.92027 6.092688 35.7635 0 0 -3.293762 10.52443 11.91597 -0.2525364
-804.5974 103.3192 2928.648 -4.201728 -4.038975 -44.36732 3.37858 18.2257 1.693143 -0 15.08352 -0 -6.145675 -15.07616 -0.5057328 2.194299 -23.89498 -4.509052 -0 12.8238 -0 -1.990036 -4.376401 18.73389 0.20602 -3.488302 8.70232 0.07878778 15.09373 -5.46994 -0.7022215 19.37998 5.175853 5.774279 -14.80272 1.50627 2.338595 -27.90496 13.16768 84.15518 21.62986 -10.85931 -0 0 28.1999 -21.46024 12.59917 9.699237 4.240609 -26.2491 -9.561288 -96.16409 6.261614 35.98129 0 0 -2.771815 10.51833 12.23828 -0.1804841
-808.3541 102.6061 2934.121 -4.00959 -4.257546 -44.89288 2.170019 19.45735 2.013224 -0 19.92614 -0 -5.985391 -11.93024 -0.04170414 0.7106936 -22.93358 -5.997126 -0 12.1764 -0 -2.296956 -4.990417 19.53463 0.1516679 -3.401596 8.611635 0.009259958 14.96879 -5.356859 -0.6468529 19.53536 5.234669 5.784245 -14.81215 1.63282 2.341431 -27.70871 13.10446 84.10489 21.87244 -10.66518 -0 0 27.93611 -21.59263 12.55657 9.783423 4.312142 -26.06682 -9.433194 -96.18002 6.426589 35.71352 0 0 -2.5341 10.62308 12.43669 -0.3309336
